<?xml version="1.0" encoding="UTF-8" standalone="no"?>
<svg
   xmlns:dc="http://purl.org/dc/elements/1.1/"
   xmlns:cc="http://creativecommons.org/ns#"
   xmlns:rdf="http://www.w3.org/1999/02/22-rdf-syntax-ns#"
   xmlns:svg="http://www.w3.org/2000/svg"
   xmlns="http://www.w3.org/2000/svg"
   xmlns:sodipodi="http://sodipodi.sourceforge.net/DTD/sodipodi-0.dtd"
   xmlns:inkscape="http://www.inkscape.org/namespaces/inkscape"
   width="100"
   height="100"
   data-name="Layer 1"
   id="svg2"
   version="1.1"
   inkscape:version="0.91 r13725"
   sodipodi:docname="garantia.svg">
  <metadata
     id="metadata23">
    <rdf:RDF>
      <cc:Work
         rdf:about="">
        <dc:format>image/svg+xml</dc:format>
        <dc:type
           rdf:resource="http://purl.org/dc/dcmitype/StillImage" />
      </cc:Work>
    </rdf:RDF>
  </metadata>
  <sodipodi:namedview
     borderopacity="1"
     objecttolerance="10"
     gridtolerance="10"
     guidetolerance="10"
     inkscape:pageopacity="0"
     inkscape:pageshadow="2"
     inkscape:window-width="841"
     inkscape:window-height="480"
     id="namedview21"
     showgrid="false"
     inkscape:zoom="2.36"
     inkscape:cx="50"
     inkscape:cy="50"
     inkscape:window-x="0"
     inkscape:window-y="14"
     inkscape:window-maximized="0"
     inkscape:current-layer="svg2" />
  <defs
     id="defs4">
    <style
       id="style6">.cls-1{fill:none;stroke:#E98C23;stroke-linecap:round;stroke-linejoin:round;stroke-width:1.65px;}</style>
  </defs>
  <title
     id="title8">Artboard 1 copy 3</title>
  <g
     class="layer"
     id="g10"
     transform="matrix(1.5769277,0,0,1.5769277,-27.216808,-28.700856)">
    <title
       id="title12">Layer 1</title>
    <g
       data-name="6"
       id="_6">
      <polyline
         class="cls-1"
         id="svg_1"
         points="59.03 58.59 62.56 79.7 47.42 75.76 32.29 79.77 35.8 58.69"
         style="fill:none;stroke:#E98C23;stroke-width:1.64999998px;stroke-linecap:round;stroke-linejoin:round" />
      <path
         class="cls-1"
         d="m 47.42,61.93 c -2.13,0 -3.9,-2.18 -5.82,-2.81 -1.92,-0.63 -4.7,0.06 -6.36,-1.15 -1.66,-1.21 -1.84,-4 -3.06,-5.7 -1.22,-1.7 -3.83,-2.67 -4.48,-4.67 -0.65,-2 0.88,-4.27 0.88,-6.41 0,-2.14 -1.5,-4.48 -0.88,-6.4 0.62,-1.92 3.27,-3 4.48,-4.67 1.21,-1.67 1.38,-4.48 3.06,-5.7 1.68,-1.22 4.36,-0.5 6.36,-1.15 2,-0.65 3.69,-2.81 5.82,-2.81 2.13,0 3.9,2.18 5.83,2.81 1.93,0.63 4.7,-0.06 6.36,1.15 1.66,1.21 1.84,4 3.06,5.7 1.22,1.7 3.83,2.67 4.48,4.67 0.65,2 -0.88,4.27 -0.88,6.4 0,2.13 1.5,4.49 0.88,6.41 -0.62,1.92 -3.27,3 -4.48,4.67 -1.21,1.67 -1.38,4.48 -3.06,5.7 -1.68,1.22 -4.37,0.5 -6.36,1.15 -1.99,0.65 -3.69,2.81 -5.83,2.81 z"
         id="svg_2"
         inkscape:connector-curvature="0"
         style="fill:none;stroke:#E98C23;stroke-width:1.64999998px;stroke-linecap:round;stroke-linejoin:round" />
      <circle
         class="cls-1"
         cx="47.419998"
         cy="41.189999"
         id="svg_3"
         r="14.53"
         style="fill:none;stroke:#E98C23;stroke-width:1.64999998px;stroke-linecap:round;stroke-linejoin:round" />
      <polygon
         class="cls-1"
         id="svg_4"
         points="55.97,39.04 51.24,43 52.71,49.09 47.42,45.78 42.14,49.09 43.6,43 38.87,39.04 45.06,38.51 47.42,32.83 47.42,32.83 49.78,38.51 "
         style="fill:none;stroke:#E98C23;stroke-width:1.64999998px;stroke-linecap:round;stroke-linejoin:round" />
      <line
         class="cls-1"
         id="svg_5"
         x1="41.220001"
         x2="38.130001"
         y1="59.369999"
         y2="77.900002"
         style="fill:none;stroke:#E98C23;stroke-width:1.64999998px;stroke-linecap:round;stroke-linejoin:round" />
      <line
         class="cls-1"
         id="svg_6"
         x1="53.720001"
         x2="56.639999"
         y1="59.630001"
         y2="77.900002"
         style="fill:none;stroke:#E98C23;stroke-width:1.64999998px;stroke-linecap:round;stroke-linejoin:round" />
    </g>
  </g>
</svg>
